<svg width="89" height="89" fill="none" xmlns="http://www.w3.org/2000/svg"><path d="M76.286 0C83.298 0 89 5.692 89 12.714v63.572C89 83.298 83.298 89 76.286 89H12.714C5.692 89 0 83.298 0 76.286V12.714C0 5.692 5.692 0 12.714 0h63.572ZM64.724 21.396c-3.12-3.1-8.145-3.1-11.245 0l-4.25 4.251 14.084 14.105 4.251-4.251c3.12-3.12 3.12-8.145 0-11.244l-2.84-2.861Zm-42.573 32.6-2.984 11.78c-.272 1.252.045 2.404.838 3.199a3.245 3.245 0 0 0 3.02.834l11.94-3a6.387 6.387 0 0 0 2.96-1.668l20.898-20.9-14.105-14.084-20.899 20.72c-.814.993-1.39 2.006-1.668 3.119Z" fill="#f0fef9"/></svg>